TITLE ""
FILE "P1Q_t_0639-0648.mp3" MP3
  TRACK 01 AUDIO
    TITLE "P1Q_t_0639-0648_01"
    INDEX 01 00:00:00
  TRACK 02 AUDIO
    TITLE "P1Q_t_0639-0648_02"
    INDEX 01 00:01:12
  TRACK 03 AUDIO
    TITLE "P1Q_t_0639-0648_03"
    INDEX 01 00:01:33
  TRACK 04 AUDIO
    TITLE "P1Q_t_0639-0648_04"
    INDEX 01 00:02:50
  TRACK 05 AUDIO
    TITLE "P1Q_t_0639-0648_05"
    INDEX 01 00:02:72
  TRACK 06 AUDIO
    TITLE "P1Q_t_0639-0648_06"
    INDEX 01 00:07:46
  TRACK 07 AUDIO
    TITLE "P1Q_t_0639-0648_07"
    INDEX 01 00:08:16
  TRACK 08 AUDIO
    TITLE "P1Q_t_0639-0648_08"
    INDEX 01 00:09:15
  TRACK 09 AUDIO
    TITLE "P1Q_t_0639-0648_09"
    INDEX 01 00:09:35
  TRACK 10 AUDIO
    TITLE "P1Q_t_0639-0648_10"
    INDEX 01 00:12:08
  TRACK 11 AUDIO
    TITLE "P1Q_t_0639-0648_11"
    INDEX 01 00:12:27
  TRACK 12 AUDIO
    TITLE "P1Q_t_0639-0648_12"
    INDEX 01 00:17:03
  TRACK 13 AUDIO
    TITLE "P1Q_t_0639-0648_13"
    INDEX 01 00:17:46
  TRACK 14 AUDIO
    TITLE "P1Q_t_0639-0648_14"
    INDEX 01 00:18:67
  TRACK 15 AUDIO
    TITLE "P1Q_t_0639-0648_15"
    INDEX 01 00:19:15
  TRACK 16 AUDIO
    TITLE "P1Q_t_0639-0648_16"
    INDEX 01 00:20:31
  TRACK 17 AUDIO
    TITLE "P1Q_t_0639-0648_17"
    INDEX 01 00:20:52
  TRACK 18 AUDIO
    TITLE "P1Q_t_0639-0648_18"
    INDEX 01 00:24:38
  TRACK 19 AUDIO
    TITLE "P1Q_t_0639-0648_19"
    INDEX 01 00:25:08
  TRACK 20 AUDIO
    TITLE "P1Q_t_0639-0648_20"
    INDEX 01 00:26:31
  TRACK 21 AUDIO
    TITLE "P1Q_t_0639-0648_21"
    INDEX 01 00:26:55
  TRACK 22 AUDIO
    TITLE "P1Q_t_0639-0648_22"
    INDEX 01 00:28:65
  TRACK 23 AUDIO
    TITLE "P1Q_t_0639-0648_23"
    INDEX 01 00:29:12
  TRACK 24 AUDIO
    TITLE "P1Q_t_0639-0648_24"
    INDEX 01 00:33:63
  TRACK 25 AUDIO
    TITLE "P1Q_t_0639-0648_25"
    INDEX 01 00:34:35
  TRACK 26 AUDIO
    TITLE "P1Q_t_0639-0648_26"
    INDEX 01 00:35:71
  TRACK 27 AUDIO
    TITLE "P1Q_t_0639-0648_27"
    INDEX 01 00:36:18
  TRACK 28 AUDIO
    TITLE "P1Q_t_0639-0648_28"
    INDEX 01 00:38:46
  TRACK 29 AUDIO
    TITLE "P1Q_t_0639-0648_29"
    INDEX 01 00:38:66
  TRACK 30 AUDIO
    TITLE "P1Q_t_0639-0648_30"
    INDEX 01 00:43:26
  TRACK 31 AUDIO
    TITLE "P1Q_t_0639-0648_31"
    INDEX 01 00:43:71
  TRACK 32 AUDIO
    TITLE "P1Q_t_0639-0648_32"
    INDEX 01 00:45:13
  TRACK 33 AUDIO
    TITLE "P1Q_t_0639-0648_33"
    INDEX 01 00:45:34
  TRACK 34 AUDIO
    TITLE "P1Q_t_0639-0648_34"
    INDEX 01 00:47:49
  TRACK 35 AUDIO
    TITLE "P1Q_t_0639-0648_35"
    INDEX 01 00:47:71
  TRACK 36 AUDIO
    TITLE "P1Q_t_0639-0648_36"
    INDEX 01 00:53:09
  TRACK 37 AUDIO
    TITLE "P1Q_t_0639-0648_37"
    INDEX 01 00:53:57
  TRACK 38 AUDIO
    TITLE "P1Q_t_0639-0648_38"
    INDEX 01 00:54:69
  TRACK 39 AUDIO
    TITLE "P1Q_t_0639-0648_39"
    INDEX 01 00:55:21
  TRACK 40 AUDIO
    TITLE "P1Q_t_0639-0648_40"
    INDEX 01 00:58:43
  TRACK 41 AUDIO
    TITLE "P1Q_t_0639-0648_41"
    INDEX 01 00:58:63
  TRACK 42 AUDIO
    TITLE "P1Q_t_0639-0648_42"
    INDEX 01 01:04:12
  TRACK 43 AUDIO
    TITLE "P1Q_t_0639-0648_43"
    INDEX 01 01:04:59
  TRACK 44 AUDIO
    TITLE "P1Q_t_0639-0648_44"
    INDEX 01 01:05:61
  TRACK 45 AUDIO
    TITLE "P1Q_t_0639-0648_45"
    INDEX 01 01:06:09
  TRACK 46 AUDIO
    TITLE "P1Q_t_0639-0648_46"
    INDEX 01 01:10:48
  TRACK 47 AUDIO
    TITLE "P1Q_t_0639-0648_47"
    INDEX 01 01:10:68
  TRACK 48 AUDIO
    TITLE "P1Q_t_0639-0648_48"
    INDEX 01 01:15:63
  TRACK 49 AUDIO
    TITLE "P1Q_t_0639-0648_49"
    INDEX 01 01:16:33
  TRACK 50 AUDIO
    TITLE "P1Q_t_0639-0648_50"
    INDEX 01 01:17:46
  TRACK 51 AUDIO
    TITLE "P1Q_t_0639-0648_51"
    INDEX 01 01:17:68
  TRACK 52 AUDIO
    TITLE "P1Q_t_0639-0648_52"
    INDEX 01 01:20:49
  TRACK 53 AUDIO
    TITLE "P1Q_t_0639-0648_53"
    INDEX 01 01:20:66
  TRACK 54 AUDIO
    TITLE "P1Q_t_0639-0648_54"
    INDEX 01 01:25:59
  TRACK 55 AUDIO
    TITLE "P1Q_t_0639-0648_55"
    INDEX 01 01:26:30
  TRACK 56 AUDIO
    TITLE "P1Q_t_0639-0648_56"
    INDEX 01 01:27:56
  TRACK 57 AUDIO
    TITLE "P1Q_t_0639-0648_57"
    INDEX 01 01:28:09
  TRACK 58 AUDIO
    TITLE "P1Q_t_0639-0648_58"
    INDEX 01 01:31:01
  TRACK 59 AUDIO
    TITLE "P1Q_t_0639-0648_59"
    INDEX 01 01:31:21
  TRACK 60 AUDIO
    TITLE "P1Q_t_0639-0648_60"
    INDEX 01 01:36:48
